# xmcd CD database file
#
# Track frame offsets:
#	150
#	16447
#	33972
#	50757
#	64455
#	72702
#	89412
#	106162
#	118470
#	133742
#	153425
#	169800
#
# Disc length: 2577 seconds
#
# Revision: 0
# Processed by: cddbd v1.4PL0 Copyright (c) Steve Scherf et al.
# Submitted via: CDex 1.50beta10
#
DISCID=b40a0f0c
DTITLE=Vicki Taylor - Out of the Blue
DYEAR=1996
DGENRE=Blues
TTITLE0=Before the Night is Gone
TTITLE1=Hurricane Wind
TTITLE2=Deaf, Dumb, and Blind
TTITLE3=Can't Get Away
TTITLE4=Howlin'
TTITLE5=Under the Bridge
TTITLE6=Cold Wind Blues
TTITLE7=Mornin' Sun
TTITLE8=Half Asleep
TTITLE9=Dark Side of the Street
TTITLE10=Long Black Night
TTITLE11=Underneath the Wheel
EXTD=YEAR: 1996
EXTT0=
EXTT1=
EXTT2=
EXTT3=
EXTT4=
EXTT5=
EXTT6=
EXTT7=
EXTT8=
EXTT9=
EXTT10=
EXTT11=
PLAYORDER=
